<svg xmlns="http://www.w3.org/2000/svg" xmlns:xlink="http://www.w3.org/1999/xlink" viewBox="16974.918 3200.936 200.902 257.465">
  <defs>
    <style>
      .cls-1 {
        fill: #3f51b5;
      }

      .cls-2 {
        fill: url(#linear-gradient);
      }

      .cls-3 {
        fill: #ff9800;
      }

      .cls-4 {
        fill: #fbc02d;
      }

      .cls-5 {
        fill: #ed9f21;
      }

      .cls-6 {
        fill: #ce8b05;
      }

      .cls-7 {
        fill: #ffa726;
      }

      .cls-8 {
        fill: url(#linear-gradient-2);
      }

      .cls-11, .cls-9 {
        fill: #784719;
      }

      .cls-10 {
        fill: #424242;
      }

      .cls-11 {
        opacity: 0.32;
      }
    </style>
    <linearGradient id="linear-gradient" x1="0.5" x2="0.5" y2="2.599" gradientUnits="objectBoundingBox">
      <stop offset="0" stop-color="#4caf50"/>
      <stop offset="1" stop-color="#265828"/>
    </linearGradient>
    <linearGradient id="linear-gradient-2" x1="0.5" x2="0.5" y2="0.551" gradientUnits="objectBoundingBox">
      <stop offset="0" stop-color="#ee9d27"/>
      <stop offset="1" stop-color="#ffc672"/>
    </linearGradient>
  </defs>
  <g id="Groupe_102" data-name="Groupe 102" transform="translate(16231 2947.328)">
    <path id="Soustraction_53" data-name="Soustraction 53" class="cls-1" d="M200.724,87.5H.172C.059,85.89,0,84.253,0,82.632A69.739,69.739,0,0,1,7.893,50.471,83.6,83.6,0,0,1,29.421,24.206,103.607,103.607,0,0,1,61.357,6.5a120.919,120.919,0,0,1,78.194,0,103.675,103.675,0,0,1,31.93,17.711,83.687,83.687,0,0,1,21.528,26.266A69.741,69.741,0,0,1,200.9,82.632c0,1.575-.059,3.211-.178,4.864v0Z" transform="translate(743.917 423.574)"/>
    <path id="Intersection_12" data-name="Intersection 12" class="cls-2" d="M113.409,82.146H0V11.987A108,108,0,0,1,25.922,0V56.224H97.207V0a107.977,107.977,0,0,1,25.934,11.988V82.146Z" transform="translate(782.8 428.928)"/>
    <path id="Tracé_117" data-name="Tracé 117" class="cls-3" d="M0-10H58.324V42.95L29.365,73.206,0,42.95Z" transform="translate(815.205 386.018)"/>
    <path id="Union_20" data-name="Union 20" class="cls-4" d="M47.27,64.122H0S8.91,0,28.5,0c18.637,0,19.27,13.039,27.711,14.3C64.859,13.039,65.52,0,84.609,0,104.676,0,113.8,64.122,113.8,64.122Z" transform="translate(785.3 253.608)"/>
    <path id="Intersection_13" data-name="Intersection 13" class="cls-5" d="M47.266,26.484H0S1.188,17.958,3.641,7.125C18.992,2.629,37.555,0,57.555,0,76.9,0,94.914,2.462,109.965,6.695c2.586,11.037,3.828,19.79,3.828,19.79Z" transform="translate(785.3 294.277)"/>
    <path id="Tracé_123" data-name="Tracé 123" class="cls-6" d="M95.647,0c52.824,0,95.647,18.353,95.647,40.992S148.471,81.983,95.647,81.983,0,63.631,0,40.992,42.823,0,95.647,0Z" transform="translate(747.205 309.453)"/>
    <ellipse id="Ellipse_187" data-name="Ellipse 187" class="cls-7" cx="12.146" cy="16.7" rx="12.146" ry="16.7" transform="translate(770.399 358.994) rotate(-16)"/>
    <ellipse id="Ellipse_188" data-name="Ellipse 188" class="cls-7" cx="12.146" cy="16.7" rx="12.146" ry="16.7" transform="translate(899.892 351.164) rotate(30)"/>
    <path id="Intersection_14" data-name="Intersection 14" class="cls-8" d="M0,40.984A68.671,68.671,0,0,1,8.887,6.965C24.129,2.566,42.492,0,62.25,0A199.315,199.315,0,0,1,112,5.972a68.623,68.623,0,0,1,9.465,35.012c0,36.051-27.191,65.286-60.742,65.286C27.191,106.27,0,77.035,0,40.984Z" transform="translate(783.639 324.641)"/>
    <rect id="Rectangle_868" data-name="Rectangle 868" class="cls-9" width="9.109" height="24.055" rx="4.555" transform="translate(817.043 351.963)"/>
    <rect id="Rectangle_869" data-name="Rectangle 869" class="cls-9" width="9.109" height="24.055" rx="4.555" transform="translate(862.589 351.963)"/>
    <path id="Tracé_125" data-name="Tracé 125" class="cls-10" d="M17028.211,1430.032v38.435s-14.037-11.7-13.486-24.532S17028.211,1430.032,17028.211,1430.032Z" transform="translate(-16235.738 -1099.359)"/>
    <path id="Tracé_126" data-name="Tracé 126" class="cls-10" d="M17014.709,1430.032v38.435s14.377-11.7,13.813-24.532S17014.709,1430.032,17014.709,1430.032Z" transform="translate(-16119.566 -1099.359)"/>
    <path id="Soustraction_54" data-name="Soustraction 54" class="cls-11" d="M.355,13.816v0A7.034,7.034,0,0,1,0,11.632C0,5.218,9.129,0,20.348,0A29.462,29.462,0,0,1,34.734,3.407c3.84,2.2,5.957,5.118,5.957,8.225a6.827,6.827,0,0,1-.355,2.175C38.516,8.333,30.109,4.36,20.348,4.36S2.176,8.335.359,13.812Z" transform="translate(863.806 414.356) rotate(180)"/>
  </g>
</svg>
